<?xml version="1.0" encoding="UTF-8" standalone="no"?>
<!-- Created with Inkscape (http://www.inkscape.org/) -->

<svg
   width="92.139595mm"
   height="92.139595mm"
   viewBox="0 0 92.139595 92.139595"
   version="1.1"
   id="svg1"
   sodipodi:docname="logoManjaria.svg"
   inkscape:version="1.4 (86a8ad7, 2024-10-11)"
   xmlns:inkscape="http://www.inkscape.org/namespaces/inkscape"
   xmlns:sodipodi="http://sodipodi.sourceforge.net/DTD/sodipodi-0.dtd"
   xmlns="http://www.w3.org/2000/svg"
   xmlns:svg="http://www.w3.org/2000/svg">
  <sodipodi:namedview
     id="namedview1"
     pagecolor="#ffffff"
     bordercolor="#999999"
     borderopacity="1"
     inkscape:showpageshadow="2"
     inkscape:pageopacity="0"
     inkscape:pagecheckerboard="0"
     inkscape:deskcolor="#d1d1d1"
     inkscape:document-units="mm"
     inkscape:zoom="2.2914959"
     inkscape:cx="174.12207"
     inkscape:cy="174.12207"
     inkscape:window-width="1920"
     inkscape:window-height="1007"
     inkscape:window-x="-9"
     inkscape:window-y="-9"
     inkscape:window-maximized="1"
     inkscape:current-layer="svg1" />
  <defs
     id="defs1" />
  <g
     id="layer1"
     transform="translate(-110.56896,-198.61115)"
     style="fill:#ffffff;fill-opacity:1">
    <path
       id="circle1-6"
       style="fill-opacity:1;stroke-width:10;fill:#ffffff"
       d="m 156.63902,198.61113 a 46.069675,46.069675 0 0 0 -46.07006,46.07006 46.069675,46.069675 0 0 0 46.07006,46.06954 46.069675,46.069675 0 0 0 46.06954,-46.06954 46.069675,46.069675 0 0 0 -46.06954,-46.07006 z m 1.01027,14.44667 c 0.99469,0.0406 1.90661,0.32648 2.85771,0.86248 1.40519,0.7919 2.02799,1.44778 3.51555,3.70313 0.12725,0.19297 0.44529,0.0995 1.17408,-0.3452 1.21021,-0.73861 2.98158,-1.08932 4.42506,-0.87643 1.57599,0.23246 4.04159,1.72106 4.87412,2.94245 0.89041,1.30631 1.33872,3.34675 1.04335,4.74803 -0.12255,0.58138 -0.18064,1.07331 -0.12919,1.09348 0.0515,0.0202 0.69198,0.0887 1.42316,0.15193 1.77488,0.15329 3.78281,1.05732 4.9196,2.21537 1.31841,1.34304 2.12072,4.25971 1.75028,6.36343 -0.47776,2.71323 -1.07275,3.7182 -3.9119,6.60993 -1.46842,1.49562 -2.77887,2.75598 -2.91197,2.80087 -0.13311,0.0449 0.43803,-0.91222 1.26865,-2.12701 1.45941,-2.13434 2.71331,-4.91429 2.9683,-6.57944 0.0678,-0.44261 0.0626,-1.38417 -0.0119,-2.09289 -0.29486,-2.80225 -3.58077,-5.96793 -5.80584,-5.59346 l -0.99684,0.16743 -1.0418,-2.759 c -0.83984,-2.22375 -1.2162,-2.92498 -1.93942,-3.61632 -1.73608,-1.65954 -3.66734,-1.82817 -6.56859,-0.57309 l -1.73012,0.74879 -0.65991,-0.93173 c -2.21425,-3.12536 -6.04122,-4.01478 -9.23148,-2.1456 -1.36179,0.79788 -2.83147,2.49647 -3.38997,3.91862 l -0.34882,0.88884 -1.56941,-0.68265 c -3.20196,-1.39347 -5.96486,-0.55584 -8.32301,2.52388 -1.3614,1.77795 -1.9632,3.78391 -1.63763,5.4591 l 0.20929,1.07435 -1.30844,0.44131 c -1.56452,0.52767 -2.60425,1.27552 -3.43287,2.4691 -1.64419,2.36834 -0.71591,7.40694 1.73995,9.44181 0.78999,0.65457 2.34029,1.27396 2.80034,1.11879 0.12915,-0.0436 0.28661,-0.9867 0.35037,-2.096 0.0942,-1.63846 0.0326,-2.07661 -0.32763,-2.33319 -1.4222,-1.01279 -1.96942,-1.55939 -2.17764,-2.17402 -0.1284,-0.37902 -0.15291,-0.71602 -0.0543,-0.74931 0.0987,-0.0333 0.87917,0.27958 1.73477,0.69556 l 1.55598,0.75655 1.85932,-0.95809 c 1.02281,-0.52696 2.30025,-1.03232 2.83859,-1.12292 1.04751,-0.17629 1.20717,-0.48924 0.8263,-1.61851 -0.26851,-0.7961 -0.33422,-3.40558 -0.0879,-3.48868 0.11334,-0.0382 0.45217,0.44425 0.75293,1.07229 0.30079,0.62804 0.87279,1.68543 1.27072,2.34973 l 0.72347,1.20819 1.22732,-0.23409 c 1.3857,-0.26405 4.23292,-0.58797 4.90926,-0.55862 0.33846,0.0147 0.43763,-0.26951 0.40669,-1.16531 -0.0572,-1.65572 0.38636,-4.53945 0.7152,-4.65036 0.15065,-0.0508 0.26621,0.0939 0.25683,0.32194 -0.03,0.72937 0.89099,4.24381 1.26453,4.82503 0.27664,0.43048 0.85722,0.60352 2.497,0.74466 l 2.13682,0.18397 1.04335,-2.15284 c 0.9706,-2.00289 2.21542,-3.68673 2.58899,-3.5016 0.0883,0.0438 -0.0636,0.88988 -0.33797,1.87999 -0.27438,0.99011 -0.58555,2.33065 -0.69143,2.97915 l -0.19275,1.17925 3.07527,0.43202 3.07474,0.43253 0.88574,-1.31723 c 0.88292,-1.31362 1.98794,-2.44589 2.58382,-2.64687 0.1728,-0.0583 -0.14878,0.83884 -0.71469,1.99368 -0.5659,1.15484 -0.98982,2.20915 -0.94206,2.34249 0.0481,0.13322 1.29226,0.44142 2.76521,0.68471 l 2.67787,0.44235 -0.37362,1.01441 c -1.3346,3.62119 -2.38093,6.91749 -2.61431,8.23774 l -0.2713,1.53376 -3.14038,-0.63924 c -3.66647,-0.74643 -10.34184,-1.50488 -14.36501,-1.63194 -3.84546,-0.12146 -9.54956,0.3336 -12.14862,0.96893 -2.48436,0.60729 -2.09231,0.12421 0.70022,-0.86299 5.48242,-1.93817 14.89619,-2.32817 24.09724,-0.99788 4.26718,0.61695 3.8002,0.92989 4.49998,-3.01583 0.23846,-1.34452 0.33743,-2.52446 0.21963,-2.62206 -0.58855,-0.48766 -7.89761,-1.74602 -12.0866,-2.08101 -6.64231,-0.53118 -11.65545,-0.18247 -16.31942,1.13584 -4.14215,1.17082 -4.1699,1.19829 -4.39508,4.2969 -0.1633,2.24708 -0.26141,2.58455 -0.78135,2.69596 -1.1116,0.23817 -4.81254,-0.97188 -6.42441,-2.10065 -1.94475,-1.36188 -2.80698,-2.61336 -3.45767,-5.01675 -1.31336,-4.85102 0.47222,-9.03205 4.43022,-10.37404 l 1.53272,-0.52038 -0.20722,-1.06712 c -0.56417,-2.90275 2.02641,-6.60538 5.78724,-8.27185 1.55476,-0.68893 3.99919,-0.78846 6.26163,-0.25528 l 1.40974,0.33176 0.77773,-1.34668 c 1.05363,-1.82447 2.80247,-3.21602 5.00021,-3.97909 1.2814,-0.4449 2.35859,-0.64984 3.35328,-0.60926 z m -26.27798,37.51244 h 24.91734 c 24.75385,0 24.92271,0.004 25.64857,0.5457 1.77821,1.32763 1.81372,1.4694 1.90272,7.56078 0.0752,5.1497 0.0414,5.63623 -0.4594,6.66212 -0.29714,0.60869 -0.97959,1.40405 -1.51671,1.76785 l -0.97668,0.66146 -24.0962,0.0584 c -20.01658,0.0482 -24.26992,-0.004 -25.11888,-0.31006 -1.34897,-0.48553 -2.49155,-1.61236 -2.81482,-2.77606 -0.14379,-0.5176 -0.25883,-3.14368 -0.25683,-5.83582 0.005,-5.53407 0.2495,-6.53585 1.87999,-7.69875 z m 5.33352,1.788 v 5.2e-4 c -0.16437,0 -0.31017,0.0325 -0.43718,0.0987 -0.12704,0.0662 -0.19454,0.15621 -0.20154,0.26975 0,0.10408 -0.0262,0.3405 -0.0785,0.70952 -0.0523,0.35956 -0.0931,0.72393 -0.12299,1.09295 -0.0299,0.35955 -0.12319,1.35773 -0.28009,2.99465 -0.1569,1.62745 -0.25406,2.68262 -0.29146,3.16518 -0.0299,0.47309 -0.06,0.80899 -0.0899,1.00769 -0.0224,0.1987 -0.0336,0.35015 -0.0336,0.45424 0.007,0.10414 0.0298,0.17004 0.0672,0.19844 0.0374,0.0283 0.14962,0.0374 0.33641,0.0284 0.18678,-0.009 0.31366,-0.0519 0.38086,-0.12764 0.0747,-0.0852 0.12332,-0.30758 0.14572,-0.66714 0.0672,-0.97458 0.1197,-1.73134 0.1571,-2.27067 0.0374,-0.53933 0.10831,-1.46204 0.21291,-2.76779 0.11205,-1.31517 0.16794,-1.9965 0.16794,-2.0438 0.0374,0.10408 0.2614,0.6624 0.67232,1.67483 0.41092,1.01243 0.79583,1.97764 1.15445,2.89544 0.3661,0.90835 0.57892,1.45217 0.63872,1.63194 0.0598,0.17978 0.14189,0.37872 0.24649,0.59634 0.11207,0.20816 0.19807,0.31213 0.25787,0.31213 0.0598,0 0.16425,-0.13747 0.31368,-0.41186 0.14943,-0.28387 0.33265,-0.65722 0.54932,-1.12086 0.21667,-0.4731 0.3921,-0.84698 0.52658,-1.12138 0.14196,-0.2744 0.46318,-0.96519 0.96376,-2.07223 0.50805,-1.11651 0.82591,-1.80728 0.95292,-2.07222 0.0224,0.24602 0.0934,1.36716 0.2129,3.36362 0.12697,1.99647 0.19017,3.05665 0.19017,3.17965 0.0149,0.69073 0.1345,1.03559 0.35864,1.03559 0.41093,-0.009 0.64661,-0.0424 0.70641,-0.0992 0.0598,-0.0568 0.0894,-0.18923 0.0894,-0.39739 0,-0.21762 -0.10057,-1.57518 -0.3023,-4.07313 -0.16437,-1.96808 -0.25434,-3.02326 -0.26924,-3.16519 -0.008,-0.15139 -0.0259,-0.49178 -0.0558,-1.02164 -0.0299,-0.52987 -0.0712,-0.90876 -0.1235,-1.13585 -0.0448,-0.0662 -0.15321,-0.0932 -0.32505,-0.0842 -0.17184,0 -0.29143,0.0274 -0.35863,0.0842 l -0.3359,0.78083 c -0.24656,0.52987 -0.63873,1.39559 -1.17667,2.59726 -0.53046,1.1922 -0.87456,1.95397 -1.03146,2.28513 -0.15689,0.33117 -0.25354,0.53905 -0.29094,0.62425 -0.0374,0.0851 -0.0714,0.16118 -0.10129,0.22738 -0.0298,0.0568 -0.0673,0.12274 -0.11214,0.19844 -0.0373,0.0662 -0.0742,0.12323 -0.11162,0.17053 -0.0299,0.0378 -0.06,0.0568 -0.0899,0.0568 -0.0299,0 -0.0936,-0.11847 -0.19069,-0.35501 -0.0971,-0.23655 -0.20889,-0.52046 -0.3359,-0.85163 -0.12702,-0.33117 -0.25773,-0.67656 -0.39222,-1.03611 -0.13448,-0.36902 -0.32498,-0.82787 -0.57154,-1.37666 -0.73219,-1.78831 -1.17297,-2.85246 -1.3224,-3.19309 -0.015,-0.0379 -0.0266,-0.0623 -0.0336,-0.0713 0,-0.019 -0.008,-0.0424 -0.0227,-0.0708 -0.015,-0.0284 -0.0266,-0.0424 -0.0336,-0.0424 -0.007,-0.01 -0.0187,-0.024 -0.0336,-0.0429 -0.015,-0.0184 -0.0256,-0.0284 -0.0336,-0.0284 z m 22.1325,0.41134 c -0.1046,0 -0.17947,0.01 -0.22427,0.0284 -0.35863,0.11355 -0.53795,0.36895 -0.53795,0.76636 0,0.23654 0.0525,0.4215 0.15709,0.55397 0.11207,0.12298 0.25398,0.18448 0.42582,0.18448 0.4707,0 0.7059,-0.29842 0.7059,-0.89452 0,-0.42578 -0.17544,-0.63872 -0.52659,-0.63872 z m 13.15579,0.15658 c -0.1046,0 -0.19453,0.052 -0.26923,0.15607 l -0.30231,0.46819 c -0.13449,0.1987 -0.25794,0.35015 -0.37001,0.45423 -0.10459,0.10409 -0.21635,0.20357 -0.33589,0.29817 -0.11207,0.0946 -0.20204,0.17513 -0.26924,0.24133 -0.0598,0.0662 -0.0855,0.13721 -0.0785,0.21291 0.007,0.0757 0.0449,0.15561 0.11213,0.24081 0.0672,0.0852 0.14208,0.12816 0.22428,0.12816 0.26149,0 0.53803,-0.095 0.82941,-0.28422 0.29886,-0.1987 0.54913,-0.41163 0.75085,-0.63872 0.20173,-0.23655 0.30231,-0.43498 0.30231,-0.59583 0,-0.16085 -0.0743,-0.31231 -0.22376,-0.45424 -0.14196,-0.15136 -0.2654,-0.22686 -0.37,-0.22686 z m 20.05976,2.01125 c 2.17774,-0.003 4.05298,1.87089 4.05298,4.0504 0,1.97292 -0.9875,3.36018 -2.87063,4.03179 -1.29675,0.46247 -1.27828,0.46379 -2.99413,-0.19068 -0.80037,-0.30529 -2.31841,-0.73557 -3.37344,-0.95602 l -1.91823,-0.401 v -2.43965 -2.44016 l 1.52136,-0.1757 c 0.83674,-0.0967 2.23573,-0.46884 3.10885,-0.82682 0.87313,-0.35799 1.98591,-0.65149 2.47324,-0.65216 z m -70.93883,0.0997 c 0.76736,-0.005 1.60787,0.15596 2.48616,0.50281 0.92693,0.36605 2.19589,0.74844 2.81946,0.84956 l 1.13378,0.18397 -0.0754,2.53421 -0.0755,2.53473 -1.45521,0.31781 c -0.80036,0.1748 -2.13673,0.57071 -2.96984,0.88005 -1.75795,0.65273 -1.62882,0.64505 -2.93471,0.17931 -1.86637,-0.66563 -2.87114,-2.05888 -2.87114,-3.98218 0,-2.47391 1.64033,-3.9849 3.94239,-4.00027 z m 26.69295,1.02526 c -0.30632,0 -0.62756,0.052 -0.96377,0.15606 -0.32874,0.0946 -0.49351,0.22708 -0.49351,0.39739 0,0.17032 0.0189,0.30778 0.0563,0.41186 0.0448,0.10406 0.10075,0.15606 0.16795,0.15606 0.0672,0 0.21694,-0.038 0.44855,-0.11368 0.23161,-0.0757 0.44836,-0.11317 0.65009,-0.11317 0.41839,0 0.74301,0.13694 0.97462,0.41134 0.23909,0.26493 0.35863,0.66731 0.35863,1.20664 -0.008,0.0662 -0.0109,0.1797 -0.0109,0.34055 -0.0672,-0.01 -0.17224,-0.0145 -0.31419,-0.0145 -0.79197,0 -1.45678,0.16596 -1.99471,0.49713 -0.53047,0.33116 -0.79582,0.861 -0.79582,1.58957 0,0.48257 0.15308,0.86093 0.4594,1.13533 0.67242,0.60556 1.45342,0.56308 2.3425,-0.12764 0.17932,-0.1325 0.29883,-0.21293 0.35863,-0.24133 0.0224,0 0.0336,0.052 0.0336,0.15606 -0.0149,0.31225 0.0895,0.46819 0.31368,0.46819 0.26896,0 0.44103,-0.0285 0.51573,-0.0853 0.0747,-0.0568 0.11213,-0.21271 0.11213,-0.46818 v -2.92386 c 0,-0.92727 -0.1905,-1.63205 -0.57154,-2.1146 -0.37356,-0.48256 -0.92272,-0.72398 -1.64744,-0.72398 z m 6.61923,0 c -0.32127,0 -0.72853,0.10897 -1.22163,0.32659 -0.2092,0.0946 -0.33657,0.15163 -0.38137,0.17053 -0.0449,-0.18921 -0.0672,-0.30771 -0.0672,-0.35501 l -0.52658,0.014 c -0.25402,0 -0.38086,0.16596 -0.38086,0.49713 v 0.51056 l -0.045,2.15749 0.045,2.96623 0.5824,0.0284 c 0.19426,0 0.32157,-0.0189 0.38137,-0.0568 0.0598,-0.0473 0.0894,-0.14679 0.0894,-0.29818 l -0.0222,-0.83716 c 0,-0.4731 -0.003,-1.13537 -0.0114,-1.98695 l -0.0222,-1.9017 c 0.25403,-0.17975 0.62386,-0.26975 1.10949,-0.26975 0.49311,0 0.84058,0.19394 1.04231,0.58188 0.20172,0.37847 0.30231,0.94629 0.30231,1.70325 l -0.0114,1.81643 c 0,0.56771 0.0117,0.96509 0.0341,1.19218 0.23908,0.0378 0.44803,0.0568 0.62735,0.0568 0.18678,0 0.29128,-0.014 0.31368,-0.0424 0.0299,-0.0284 0.045,-0.13737 0.045,-0.3266 l 0.0558,-2.42673 c 0,-0.86103 -0.0598,-1.55181 -0.17932,-2.07222 -0.0822,-0.3217 -0.19005,-0.57712 -0.32453,-0.76636 -0.13449,-0.1987 -0.32551,-0.35966 -0.57206,-0.48266 -0.24655,-0.13246 -0.53374,-0.19895 -0.86248,-0.19895 z m 8.14989,0 c -0.30633,0 -0.62755,0.052 -0.96376,0.15606 -0.32874,0.0946 -0.493,0.22708 -0.493,0.39739 0,0.17032 0.0189,0.30778 0.0563,0.41186 0.0448,0.10406 0.10075,0.15606 0.16795,0.15606 0.0672,0 0.21642,-0.038 0.44803,-0.11368 0.23161,-0.0757 0.44837,-0.11317 0.65009,-0.11317 0.4184,0 0.74352,0.13694 0.97514,0.41134 0.23908,0.26493 0.35863,0.66731 0.35863,1.20664 -0.007,0.0662 -0.0114,0.1797 -0.0114,0.34055 -0.0672,-0.01 -0.17172,-0.0145 -0.31367,-0.0145 -0.79197,0 -1.45677,0.16596 -1.99471,0.49713 -0.53046,0.33116 -0.79582,0.861 -0.79582,1.58957 0,0.48257 0.15308,0.86093 0.4594,1.13533 0.67242,0.60556 1.45341,0.56308 2.3425,-0.12764 0.17932,-0.1325 0.29883,-0.21293 0.35863,-0.24133 0.0224,0 0.0336,0.052 0.0336,0.15606 -0.0149,0.31225 0.0895,0.46819 0.31368,0.46819 0.26897,0 0.44103,-0.0285 0.51573,-0.0853 0.0747,-0.0568 0.11162,-0.21271 0.11162,-0.46818 v -2.92386 c 0,-0.92727 -0.19051,-1.63205 -0.57154,-2.1146 -0.37357,-0.48256 -0.92273,-0.72398 -1.64745,-0.72398 z m 12.5057,0 c -0.30633,0 -0.62756,0.052 -0.96377,0.15606 -0.32873,0.0946 -0.49299,0.22708 -0.49299,0.39739 0,0.17032 0.0184,0.30778 0.0558,0.41186 0.0448,0.10406 0.10127,0.15606 0.16847,0.15606 0.0672,0 0.21642,-0.038 0.44803,-0.11368 0.23161,-0.0757 0.44836,-0.11317 0.65009,-0.11317 0.41839,0 0.74353,0.13694 0.97514,0.41134 0.23909,0.26493 0.35863,0.66731 0.35863,1.20664 -0.007,0.0662 -0.0114,0.1797 -0.0114,0.34055 -0.0672,-0.01 -0.17172,-0.0145 -0.31368,-0.0145 -0.79196,0 -1.45677,0.16596 -1.99471,0.49713 -0.53046,0.33116 -0.79581,0.861 -0.79581,1.58957 0,0.48257 0.15307,0.86093 0.4594,1.13533 0.67242,0.60556 1.4534,0.56308 2.34249,-0.12764 0.17931,-0.1325 0.29884,-0.21293 0.35864,-0.24133 0.0224,0 0.0336,0.052 0.0336,0.15606 -0.0149,0.31225 0.0895,0.46819 0.31367,0.46819 0.26897,0 0.44052,-0.0285 0.51522,-0.0853 0.0747,-0.0568 0.11214,-0.21271 0.11214,-0.46818 v -2.92386 c 0,-0.92727 -0.19051,-1.63205 -0.57155,-2.1146 -0.37357,-0.48256 -0.92272,-0.72398 -1.64744,-0.72398 z m -5.80791,0.0145 c -0.27644,0 -0.60885,0.12744 -0.99736,0.38292 -0.38851,0.25547 -0.60529,0.38344 -0.65009,0.38344 -0.007,-0.0662 -0.0114,-0.1797 -0.0114,-0.34055 0,-0.20816 -0.18661,-0.31213 -0.56017,-0.31213 -0.17185,0 -0.28025,0.11796 -0.32505,0.3545 -0.0224,0.13247 -0.0409,0.24595 -0.0558,0.34055 -0.007,0.0946 -0.0114,0.23658 -0.0114,0.42582 0,0.18924 -0.003,0.32169 -0.0114,0.39739 l -0.078,3.15071 c 0,0.89888 0.0447,1.38623 0.13435,1.46193 0.0448,0.0378 0.19064,0.0568 0.43719,0.0568 0.25403,0 0.41045,-0.0615 0.47025,-0.18448 0.0299,-0.0757 0.045,-0.15116 0.045,-0.22686 0.007,-0.0757 0.0114,-0.17016 0.0114,-0.28371 v -0.24133 -0.2129 l -0.0227,-2.41278 v -0.92294 c 0.0448,-0.0946 0.12747,-0.17006 0.24701,-0.22686 0.0598,-0.0285 0.11565,-0.0569 0.16795,-0.0853 0.0598,-0.0284 0.13071,-0.0519 0.21291,-0.0708 0.0897,-0.0283 0.16448,-0.0478 0.22428,-0.0568 0.0598,-0.0189 0.14189,-0.0379 0.24649,-0.0568 0.1046,-0.0284 0.18283,-0.0478 0.23513,-0.0568 0.0598,-0.01 0.1458,-0.0235 0.25787,-0.0424 0.11954,-0.0189 0.20169,-0.0339 0.24649,-0.0429 0.0523,-0.13247 0.0786,-0.3264 0.0786,-0.58187 0,-0.25545 -0.0224,-0.41595 -0.0672,-0.48215 -0.0374,-0.0757 -0.1122,-0.11368 -0.22427,-0.11368 z m 1.97972,0.14159 v 5.2e-4 c -0.18678,0 -0.31417,0.0235 -0.38137,0.0708 -0.0673,0.0473 -0.10077,0.20326 -0.10077,0.46819 l -0.0336,0.83768 c -0.007,0.24601 -0.0114,0.82281 -0.0114,1.73116 l 0.045,2.59725 c 0,0.21759 0.0263,0.3501 0.0786,0.3974 0.0598,0.0378 0.20894,0.0568 0.44803,0.0568 0.23908,0 0.39607,-0.0235 0.47077,-0.0708 0.0224,-0.0284 0.0336,-0.0994 0.0336,-0.2129 l -0.0336,-2.81017 v -2.0438 c 0,-0.23655 -0.007,-0.56295 -0.0222,-0.97927 -0.13448,-0.0284 -0.29874,-0.0429 -0.49299,-0.0429 z m -12.61783,0.0145 c -0.14196,0 -0.23529,0.0235 -0.28009,0.0708 -0.0224,0.0285 -0.0453,0.0569 -0.0677,0.0853 -0.0149,0.0284 -0.0295,0.0759 -0.0444,0.14211 -0.007,0.0567 -0.0157,0.11322 -0.0227,0.17002 0,0.0473 -0.003,0.12329 -0.0109,0.22737 v 0.25528 c 0.008,0.0757 0.0109,0.18468 0.0109,0.3266 v 0.36897 l -0.0109,5.64875 c 0,0.5961 -0.105,1.01696 -0.31419,1.26297 -0.2092,0.25547 -0.45168,0.38344 -0.72812,0.38344 -0.0672,0 -0.22421,-0.024 -0.47077,-0.0713 -0.11204,0.11354 -0.16795,0.28848 -0.16795,0.52503 0,0.28386 0.21285,0.42581 0.63872,0.42581 0.42586,0 0.80297,-0.12296 1.13171,-0.36897 0.13448,-0.0946 0.25405,-0.23156 0.35864,-0.41134 0.1046,-0.17977 0.19066,-0.34073 0.25786,-0.48266 0.0672,-0.14193 0.12315,-0.33586 0.16795,-0.58187 0.0448,-0.24601 0.0822,-0.47294 0.11214,-0.6811 0.0373,-0.20816 0.0563,-0.53957 0.0563,-0.99374 v -2.83858 c 0,-1.80723 -0.0117,-2.94738 -0.0341,-3.42047 -0.24656,-0.0284 -0.44043,-0.0424 -0.58239,-0.0424 z m -9.64076,3.29282 c 0.008,0.0378 0.0109,0.20778 0.0109,0.51056 0,0.30278 -0.007,0.58669 -0.0222,0.85163 -0.007,0.13246 -0.13092,0.28893 -0.37,0.46871 -0.23161,0.17029 -0.49697,0.25528 -0.79582,0.25528 -0.59024,0 -0.88522,-0.25093 -0.88522,-0.75241 0,-0.23655 0.0598,-0.44447 0.17932,-0.62425 0.22414,-0.3501 0.85204,-0.58651 1.88309,-0.70952 z m 14.76912,0 c 0.007,0.0378 0.0114,0.20778 0.0114,0.51056 0,0.30278 -0.007,0.58669 -0.0222,0.85163 -0.007,0.13246 -0.13092,0.28893 -0.37,0.46871 -0.23162,0.17029 -0.49697,0.25528 -0.79582,0.25528 -0.59024,0 -0.88522,-0.25093 -0.88522,-0.75241 0,-0.23655 0.0598,-0.44447 0.17932,-0.62425 0.22414,-0.3501 0.85153,-0.58651 1.88257,-0.70952 z m 12.5057,0 c 0.007,0.0378 0.0114,0.2083 0.0114,0.51108 0,0.30278 -0.008,0.58617 -0.0227,0.85111 -0.007,0.13246 -0.13039,0.28893 -0.36948,0.46871 -0.23161,0.17029 -0.49697,0.25528 -0.79582,0.25528 -0.59024,0 -0.88522,-0.25093 -0.88522,-0.75241 0,-0.23655 0.0598,-0.44447 0.17932,-0.62425 0.22414,-0.3501 0.85152,-0.58651 1.88257,-0.70952 z" />
  </g>
</svg>
